<?xml version="1.0" encoding="utf-8"?>
<svg width="60px" height="60px" viewBox="0 0 60 60" version="1.1" xmlns:xlink="http://www.w3.org/1999/xlink" xmlns="http://www.w3.org/2000/svg">
  <defs>
    <path d="M0 0L60 0L60 60L0 60L0 0Z" id="path_1" />
    <clipPath id="mask_1">
      <use xlink:href="#path_1" />
    </clipPath>
  </defs>
  <g id="Settings-Icon">
    <path d="M0 0L60 0L60 60L0 60L0 0Z" id="Background" fill="#FFFFFF" fill-opacity="0" fill-rule="evenodd" stroke="none" />
    <g clip-path="url(#mask_1)">
      <path d="M24.165 5L22.9395 11.3086C20.879 12.0856 18.987 13.1748 17.3291 14.5361L11.2695 12.4463L5.42969 22.5537L10.2832 26.7725C10.0966 27.918 10 28.9796 10 30C10 31.0219 10.0995 32.0816 10.2832 33.2275L10.2832 33.2324L5.42969 37.4512L11.2695 47.5537L17.3242 45.4688C18.9822 46.8308 20.8786 47.9139 22.9395 48.6914L24.165 55L35.835 55L37.0605 48.6914C39.1223 47.9139 41.0123 46.8264 42.6709 45.4639L48.7305 47.5537L54.5654 37.4512L49.7168 33.2275C49.9034 32.082 50 31.0204 50 30C50 28.9811 49.9028 27.9209 49.7168 26.7773L49.7168 26.7725L54.5703 22.5488L48.7305 12.4463L42.6758 14.5313C41.0178 13.1692 39.1214 12.0861 37.0605 11.3086L35.835 5L24.165 5L24.165 5ZM28.2861 10L31.7139 10L32.6855 15L35.293 15.9863C36.8646 16.5787 38.2767 17.3919 39.502 18.3984L41.6602 20.166L46.4648 18.5156L48.1787 21.4795L44.3408 24.8193L44.7803 27.5684L44.7803 27.5732C44.9331 28.5106 45 29.2969 45 30C45 30.7031 44.9331 31.4893 44.7803 32.4268L44.3359 35.1758L48.1738 38.5156L46.46 41.4844L41.6602 39.8291L39.4971 41.6016C38.2718 42.6081 36.8646 43.4213 35.293 44.0137L35.2881 44.0137L32.6807 45L31.709 50L28.2861 50L27.3145 45L24.707 44.0137C23.1354 43.4213 21.7233 42.6081 20.498 41.6016L18.3398 39.834L13.5352 41.4844L11.8213 38.5205L15.6641 35.1758L15.2197 32.4365L15.2197 32.4316C15.069 31.4902 15 30.7017 15 30C15 29.2969 15.0669 28.5107 15.2197 27.5732L15.6641 24.8242L11.8213 21.4844L13.5352 18.5156L18.3398 20.1709L20.498 18.3984C21.7233 17.3919 23.1354 16.5787 24.707 15.9863L27.3145 15L28.2861 10L28.2861 10ZM30 20C24.5087 20 20 24.5087 20 30C20 35.4913 24.5087 40 30 40C35.4913 40 40 35.4913 40 30C40 24.5087 35.4913 20 30 20L30 20ZM30 25C32.7787 25 35 27.2213 35 30C35 32.7787 32.7787 35 30 35C27.2213 35 25 32.7787 25 30C25 27.2213 27.2213 25 30 25L30 25Z" id="Shape" fill="#06203A" fill-rule="evenodd" stroke="none" />
    </g>
  </g>
</svg>